<svg width="34" height="33" viewBox="0 0 34 33" fill="none" xmlns="http://www.w3.org/2000/svg">
<path d="M33.1162 16.3485C33.1162 17.2677 33.0497 18.1869 32.9167 19.0404C31.6532 26.7879 24.8039 32.697 16.5581 32.697C7.44781 32.697 0 25.4091 0 16.3485C0 7.28788 7.38131 0 16.5581 0C25.7348 0 33.1162 7.35354 33.1162 16.3485Z" fill="white" fill-opacity="0.6"/>
<path d="M17.0959 8.84C18.5092 8.84 19.6359 9.20667 20.4759 9.94C21.3159 10.66 21.7359 11.7 21.7359 13.06C21.7359 14.3267 21.3225 15.32 20.4959 16.04C19.6825 16.76 18.5892 17.1333 17.2159 17.16V18.94H13.9959V14.96H15.3359C16.2959 14.96 17.0425 14.8267 17.5759 14.56C18.1092 14.28 18.3759 13.7867 18.3759 13.08C18.3759 12.6267 18.2492 12.2733 17.9959 12.02C17.7425 11.7667 17.4025 11.64 16.9759 11.64C16.4959 11.64 16.1159 11.7867 15.8359 12.08C15.5692 12.36 15.4359 12.72 15.4359 13.16H12.2159C12.1892 12.36 12.3559 11.6333 12.7159 10.98C13.0892 10.3133 13.6492 9.79333 14.3959 9.42C15.1425 9.03333 16.0425 8.84 17.0959 8.84ZM17.3959 20.58V24H13.8359V20.58H17.3959Z" fill="#8EA0CF"/>
</svg>
