<svg xmlns="http://www.w3.org/2000/svg" xmlns:xlink="http://www.w3.org/1999/xlink" viewBox="0 0 720 720"><defs><style>.cls-1{fill:#fff;stroke-linecap:round;stroke-linejoin:round;stroke-width:10.62px;stroke:url(#linear-gradient);}.cls-2{fill:url(#linear-gradient-2);}.cls-3{fill:url(#linear-gradient-3);}.cls-4{fill:url(#linear-gradient-4);}.cls-5{fill:url(#linear-gradient-5);}.cls-6{fill:url(#linear-gradient-6);}</style><linearGradient id="linear-gradient" x1="352.52" y1="538.34" x2="352.52" y2="57.52" gradientUnits="userSpaceOnUse"><stop offset="0" stop-color="#d5def1"/><stop offset="1" stop-color="#889ed1"/></linearGradient><linearGradient id="linear-gradient-2" x1="295.55" y1="203.72" x2="295.55" y2="177.53" xlink:href="#linear-gradient"/><linearGradient id="linear-gradient-3" x1="212.37" y1="640.35" x2="212.37" y2="551.79" xlink:href="#linear-gradient"/><linearGradient id="linear-gradient-4" x1="313.62" y1="641.24" x2="313.62" y2="550.64" xlink:href="#linear-gradient"/><linearGradient id="linear-gradient-5" x1="419.89" y1="641.24" x2="419.89" y2="550.64" xlink:href="#linear-gradient"/><linearGradient id="linear-gradient-6" x1="512.09" y1="640.35" x2="512.09" y2="551.79" xlink:href="#linear-gradient"/></defs><title>hoot</title><g id="Layer_1" data-name="Layer 1"><path class="cls-1" d="M420.15,219.24,420,455.91C295.41,386.12,320.32,229,320.32,229m-63.39,6.63S238.6,398.67,420.15,453.89V231M277.5,277.22a207.2,207.2,0,0,0,29,72.32M250.83,197.81s-24.31,36.88-23.09,51.49l29.19-13.7m146.39,2.6c12.18-6.49,15.27-14.54,15.27-14.54a83.64,83.64,0,1,0-163,5s1.11,14.1,21.67,20.6M320.32,229c40.8-75.77-24.77-94.39-24.77-94.39m24.44-46c-33.54,28.14-35.17,81.71-35.17,81.71s9.34-59.93,41.4-62M329,495.25a10.44,10.44,0,0,0-.76-.73,20.48,20.48,0,0,0-13.81,5.77c-7.38,6.85-9,17.09-3.65,22.87a10.44,10.44,0,0,0,.76.73,20.52,20.52,0,0,0,13.81-5.77C332.71,511.26,334.34,501,329,495.25Zm16.91,34.18a27.14,27.14,0,0,0,21.35,2.42c.33-.46.64-.93.93-1.43,6.47-11,1.77-25.43-10.5-32.31a27.13,27.13,0,0,0-21.35-2.42c-.32.47-.64.94-.93,1.43C328.92,508.08,333.62,522.55,345.89,529.43Zm165.46-47.26V469.36a6.08,6.08,0,0,0-6.07-6.06H229.69a6.08,6.08,0,0,0-6.06,6.06v12.81a6.08,6.08,0,0,0,6.06,6.06H505.28A6.08,6.08,0,0,0,511.35,482.17Zm-284-18.87L193.7,475.76l33.69,12.47Zm257.84,24.93h20.3a6,6,0,0,0,5.82-6.06V469.36a6,6,0,0,0-5.82-6.06h-20.3ZM352.14,360.51V245.38a16.42,16.42,0,0,0-32.83,0M352.14,360c0,9.06,7.73,13.85,16.79,13.85a16.41,16.41,0,0,0,16.41-16.41V257.75m34.81,204.78A205.62,205.62,0,0,0,558.07,268.37c0-113.52-92-205.54-205.55-205.54S147,154.85,147,268.37A205.64,205.64,0,0,0,284.82,462.51m51.63-102c10.09,24.85,25.52,49.61,48.89,70.65"/><path class="cls-2" d="M311.72,185.48c0-.45,0-.9-.05-1.34a18.24,18.24,0,0,0-32.29,11.63c0,.45,0,.9.06,1.34a18.23,18.23,0,0,0,32.28-11.63Z"/><path class="cls-3" d="M247.74,551.79v88.56H233.21V601.61H191.54v38.74H177V551.79h14.53v38h41.67v-38Z"/><path class="cls-4" d="M290.87,635.44a42.87,42.87,0,0,1-16.44-16.18,48.08,48.08,0,0,1,0-46.7,42.92,42.92,0,0,1,16.44-16.12,47.75,47.75,0,0,1,45.62,0,42.53,42.53,0,0,1,16.37,16.12,48.51,48.51,0,0,1,0,46.7,42.48,42.48,0,0,1-16.37,16.18,47.75,47.75,0,0,1-45.62,0Zm38.42-10.83a27.84,27.84,0,0,0,10.77-11.47,40.22,40.22,0,0,0,0-34.47,27.62,27.62,0,0,0-10.77-11.34,33.08,33.08,0,0,0-31.35,0,27.56,27.56,0,0,0-10.77,11.34,40.22,40.22,0,0,0,0,34.47,27.78,27.78,0,0,0,10.77,11.47,32.57,32.57,0,0,0,31.35,0Z"/><path class="cls-5" d="M397.14,635.44a42.91,42.91,0,0,1-16.43-16.18,48,48,0,0,1,0-46.7,43,43,0,0,1,16.43-16.12,47.75,47.75,0,0,1,45.62,0,42.56,42.56,0,0,1,16.38,16.12,48.51,48.51,0,0,1,0,46.7,42.51,42.51,0,0,1-16.38,16.18,47.75,47.75,0,0,1-45.62,0Zm38.42-10.83a27.78,27.78,0,0,0,10.77-11.47,40.13,40.13,0,0,0,0-34.47,27.56,27.56,0,0,0-10.77-11.34,33.06,33.06,0,0,0-31.34,0,27.56,27.56,0,0,0-10.77,11.34,40.13,40.13,0,0,0,0,34.47,27.78,27.78,0,0,0,10.77,11.47,32.55,32.55,0,0,0,31.34,0Z"/><path class="cls-6" d="M543,551.79v11.85H519.41v76.71H504.89V563.64H481.18V551.79Z"/></g></svg>