<svg width="30" height="30" viewBox="0 0 30 30" fill="none" xmlns="http://www.w3.org/2000/svg">
<path fill-rule="evenodd" clip-rule="evenodd" d="M21.4408 18.8679H20.0858L19.6055 18.4048C21.2864 16.4494 22.2985 13.9108 22.2985 11.1492C22.2985 4.99142 17.307 0 11.1492 0C4.99142 0 0 4.99142 0 11.1492C0 17.307 4.99142 22.2985 11.1492 22.2985C13.9108 22.2985 16.4494 21.2864 18.4048 19.6055L18.8679 20.0858V21.4408L27.4443 30L30 27.4443L21.4408 18.8679ZM11.1491 18.8679C6.8781 18.8679 3.43042 15.4203 3.43042 11.1492C3.43042 6.87823 6.8781 3.43054 11.1491 3.43054C15.4201 3.43054 18.8678 6.87823 18.8678 11.1492C18.8678 15.4203 15.4201 18.8679 11.1491 18.8679Z" fill="white"/>
</svg>
